<svg version="1" xmlns="http://www.w3.org/2000/svg" width="400" height="400" viewBox="0 0 300.000000 300.000000"><path d="M124.5 1.6C69.2 11.8 24.1 50.7 7.1 102.7 1.4 120.2.5 126.6.5 150c0 17.3.4 23.2 1.9 30 6.7 30.6 19.5 54 41.5 76.1 22.1 22 45.5 34.8 76.1 41.5 6.8 1.5 12.7 1.9 30 1.9s23.2-.4 30-1.9c30.6-6.7 54-19.5 76.1-41.5 22-22.1 34.8-45.5 41.5-76.1 1.5-6.8 1.9-12.7 1.9-30s-.4-23.2-1.9-30c-6.7-30.6-19.5-54-41.5-76.1-21.7-21.6-43.9-34-74-41.1-11.6-2.7-45.7-3.5-57.6-1.2zM210 90v15H90V75h120v15zm-60 60v15H90v-30h60v15zm-30 60v15H90v-30h30v15z"/></svg>